<svg xmlns="http://www.w3.org/2000/svg" width="19.874" height="19.97" viewBox="0 0 19.874 19.97">
  <metadata><?xpacket begin="﻿" id="W5M0MpCehiHzreSzNTczkc9d"?>
<x:xmpmeta xmlns:x="adobe:ns:meta/" x:xmptk="Adobe XMP Core 5.6-c140 79.160451, 2017/05/06-01:08:21        ">
   <rdf:RDF xmlns:rdf="http://www.w3.org/1999/02/22-rdf-syntax-ns#">
      <rdf:Description rdf:about=""/>
   </rdf:RDF>
</x:xmpmeta>
                                                                                                    
                                                                                                    
                                                                                                    
                                                                                                    
                                                                                                    
                                                                                                    
                                                                                                    
                                                                                                    
                                                                                                    
                                                                                                    
                                                                                                    
                                                                                                    
                                                                                                    
                                                                                                    
                                                                                                    
                                                                                                    
                                                                                                    
                                                                                                    
                                                                                                    
                                                                                                    
                           
<?xpacket end="w"?></metadata>
<defs>
    <style>
      .cls-1 {
        fill-rule: evenodd;
      }
    </style>
  </defs>
  <path id="rss" class="cls-1" d="M454.338,2418.18a2.89,2.89,0,1,0,2.9,2.89A2.9,2.9,0,0,0,454.338,2418.18Zm-2.747-7.49c-0.051,0-.1.01-0.153,0.01v3.69a0.787,0.787,0,0,1,.153-0.01,9.493,9.493,0,0,1,9.384,9.38c0,0.08-.01.15-0.012,0.23h3.7c0-.08.013-0.15,0.013-0.23A13.2,13.2,0,0,0,451.591,2410.69Zm0-6.67c-0.051,0-.1.01-0.153,0.01v3.72c0.051,0,.1-0.01.153-0.01a16.133,16.133,0,0,1,16.067,16.02c0,0.08,0,.15-0.006.23H471.3c0-.08.006-0.15,0.006-0.23A19.816,19.816,0,0,0,451.591,2404.02Z" transform="translate(-451.438 -2404.03)"/>
</svg>
